<svg xmlns="http://www.w3.org/2000/svg" width="60.27" height="61.268" viewBox="0 0 60.27 61.268">
  <g id="clock-service-icon" transform="translate(-79.289 -51.757)">
    <path id="Path_43972" data-name="Path 43972" d="M59.228,93.065a27.3,27.3,0,1,1,27.3-27.305A27.335,27.335,0,0,1,59.228,93.065Zm0-49.317c-11.591,0-22.015,10.424-22.015,22.012S47.639,87.775,59.228,87.775,81.239,77.349,81.239,65.76,70.815,43.748,59.228,43.748Z" transform="translate(47.366 13.296)" fill="#53666d"/>
    <path id="Path_43985" data-name="Path 43985" d="M51.7,44.748A13.49,13.49,0,1,0,65.193,58.237,13.5,13.5,0,0,0,51.7,44.748Z" transform="translate(73.366 40.296)" fill="#fff" stroke="#53666d" stroke-width="2"/>
    <g id="Group_13489" data-name="Group 13489" transform="translate(-1)">
      <path id="Path_43980" data-name="Path 43980" d="M14.148,41.17H9.789a.839.839,0,0,0,0,1.679h4.359a.839.839,0,0,0,0-1.679Z" transform="translate(80.581 37.916)" fill="#53666d"/>
      <path id="Path_43981" data-name="Path 43981" d="M66.419,42.849h4.359a.839.839,0,0,0,0-1.679H66.419a.839.839,0,1,0,0,1.679Z" transform="translate(55.639 37.916)" fill="#53666d"/>
      <path id="Path_43982" data-name="Path 43982" d="M42,65.6a.838.838,0,0,0-.839.839V70.8a.839.839,0,0,0,1.679,0V66.439A.838.838,0,0,0,42,65.6Z" transform="translate(66.395 27.156)" fill="#53666d"/>
      <path id="Path_43983" data-name="Path 43983" d="M34.98,33.688a.841.841,0,0,0,.425-.118l9.927-5.819a.839.839,0,1,0-.845-1.449L35.2,31.747,26.726,20.7a.838.838,0,0,0-1.332,1.018l8.919,11.639A.826.826,0,0,0,34.98,33.688Z" transform="translate(73.414 47.076)" fill="#53666d"/>
      <path id="Path_43984" data-name="Path 43984" d="M42,15a.838.838,0,0,0,.839-.839V9.8a.839.839,0,1,0-1.679,0v4.359A.838.838,0,0,0,42,15Z" transform="translate(66.395 52.103)" fill="#53666d"/>
    </g>
    <g id="Group_13490" data-name="Group 13490" transform="translate(117.925 90.024)">
      <path id="Path_43960" data-name="Path 43960" d="M26.735,53.411,25.18,56.744l-.4-1.215a.4.4,0,0,0,.155-.294l.294-.7a.384.384,0,0,0-.4-.369h-.955a.384.384,0,0,0-.4.369l.293.7a.405.405,0,0,0,.155.294l-.4,1.215-1.555-3.333c-3.008,2.336-5.025-.38-5.025,5.119a1.3,1.3,0,0,0,.764,1.034l.058-.114a2.9,2.9,0,0,1,4.841-.509H26.1a2.9,2.9,0,0,1,4.841.509l.058.114a1.294,1.294,0,0,0,.764-1.034C31.76,53.031,29.743,55.747,26.735,53.411Z" transform="translate(-16.949 -42.564)" fill="#53666d"/>
      <path id="Path_43961" data-name="Path 43961" d="M32.816,32.106c.1.566.352,1,.584,1.035.578,1.575,1.816,3.063,3.249,3.063s2.674-1.491,3.252-3.068c.223-.066.457-.489.552-1.03a2.258,2.258,0,0,0,.015-.77H32.8A2.276,2.276,0,0,0,32.816,32.106Z" transform="translate(-29.229 -25.435)" fill="#53666d"/>
      <path id="Path_43962" data-name="Path 43962" d="M30.663,10.158h7.81a.551.551,0,1,0,0-1.1h-.15a3.755,3.755,0,0,0-2.06-3.35l-.311,1.764a.288.288,0,0,1-.283.238.3.3,0,0,1-.051,0,.288.288,0,0,1-.233-.334l.355-2.015A.752.752,0,0,0,35.1,5H34.036a.752.752,0,0,0-.639.355l.355,2.015a.288.288,0,0,1-.234.334.3.3,0,0,1-.05,0,.288.288,0,0,1-.283-.238l-.311-1.764a3.753,3.753,0,0,0-2.059,3.35h-.151a.551.551,0,0,0,0,1.1Z" transform="translate(-27.163 -5)" fill="#53666d"/>
    </g>
  </g>
</svg>
