<svg xmlns="http://www.w3.org/2000/svg" width="16.23" height="12.495" viewBox="0 0 16.23 12.495">
  <path id="header-youtube-icon" d="M18.962,147.008a2.3,2.3,0,0,0-2.14-2.139,64.92,64.92,0,0,0-11.359,0,2.3,2.3,0,0,0-2.139,2.139,25.33,25.33,0,0,0,0,7.718,2.3,2.3,0,0,0,2.139,2.139,64.92,64.92,0,0,0,11.359,0,2.3,2.3,0,0,0,2.14-2.139A25.33,25.33,0,0,0,18.962,147.008Zm-5.436,4.167-4.395,2.648a.4.4,0,0,1-.388,0,.377.377,0,0,1-.209-.312v-5.3a.394.394,0,0,1,.584-.308l4.4,2.648a.354.354,0,0,1,.177.308A.347.347,0,0,1,13.526,151.174Z" transform="translate(-3.028 -144.619)" fill="#fff" fill-rule="evenodd"/>
</svg>
