<svg xmlns="http://www.w3.org/2000/svg" width="221" height="110.265" viewBox="0 0 221 110.265">
  <g id="logo" transform="translate(0 0)">
    <g id="Group_1" data-name="Group 1" transform="translate(84.367 0)">
      <path id="Path_1" data-name="Path 1" d="M191.12,154.684l.005-.434-.005-.432.635-54.7h.195l.625,54.7.005.433,0,.433-.635,54.7h-.195l-.625-54.7Zm.092-.867.005.433,0-.433Zm.01.867,0-.433-.005.432Z" transform="translate(-191.12 -99.118)" fill="#fff"/>
      <path id="Path_2" data-name="Path 2" d="M318.11,151.6h2.158V140.229h2.571V151.6h4.232V140.229h2.571v13.512H318.11a4.219,4.219,0,0,1-1.5-.265,3.442,3.442,0,0,1-1.268-.925,4.446,4.446,0,0,1-1.508.891,5.253,5.253,0,0,1-1.753.3H304.85a4.113,4.113,0,0,1-1.192,3.152,4.733,4.733,0,0,1-3.368,1.121,9.652,9.652,0,0,1-2.027-.187,5.312,5.312,0,0,1-1.648-.673l1-1.937a5.733,5.733,0,0,0,1.323.525,5.487,5.487,0,0,0,1.3.152,2,2,0,0,0,1.51-.551,2.1,2.1,0,0,0,.531-1.515l-1.712-.087a3.676,3.676,0,0,1-2.841-1.077,4.359,4.359,0,0,1-.995-3.066,4.468,4.468,0,0,1,.683-2.47,4.362,4.362,0,0,1,1.93-1.629,6.925,6.925,0,0,1,2.883-.564h2.621V151.6h3.938a6.22,6.22,0,0,1-.211-4.117,6.734,6.734,0,0,1,.624-1.537,7.271,7.271,0,0,1,1.774-.755,6.276,6.276,0,0,1,1.648-.26,4.443,4.443,0,0,1,2.145.52,3.691,3.691,0,0,1,1.5,1.472,4.464,4.464,0,0,1,.53,2.211,5.219,5.219,0,0,1-.319,1.832,1.723,1.723,0,0,0,.712.49A2.88,2.88,0,0,0,318.11,151.6Zm-7.4-2.076a6.6,6.6,0,0,0,.4,2.076h.65a2.344,2.344,0,0,0,1.749-.721,2.4,2.4,0,0,0,.7-1.745,2.345,2.345,0,0,0-.447-1.507,1.439,1.439,0,0,0-1.187-.56,3.153,3.153,0,0,0-1.61.5A7.475,7.475,0,0,0,310.708,149.529Zm-8.429,2.076v-4.533h-.557a2.283,2.283,0,0,0-1.724.642,2.512,2.512,0,0,0-.619,1.815,2.415,2.415,0,0,0,.421,1.571,1.584,1.584,0,0,0,1.289.5Zm-11.085-11.376h2.571v13.512h-2.571Zm-6.8,17.785a5.742,5.742,0,0,1-1.624-.217,5.575,5.575,0,0,1-1.554-.781l1.036-1.729a3.5,3.5,0,0,0,.806.408,2.749,2.749,0,0,0,.839.113,1.34,1.34,0,0,0,1.112-.543,2.166,2.166,0,0,0,.421-1.368v-8.961H288v9.091a4.149,4.149,0,0,1-.982,2.909A3.38,3.38,0,0,1,284.392,158.014ZM272.406,151.6h5.765a11.282,11.282,0,0,0-.863-2.653,6.118,6.118,0,0,0-1.3-1.745,6.577,6.577,0,0,0-1.926-1.22l.97-2.492a8.283,8.283,0,0,1,3.7,2.948,13.532,13.532,0,0,1,2.02,5.232v2.067h-8.371Zm-8.3-11.376h2.571v13.512H264.1Zm-11.6,17.958a1.1,1.1,0,0,1-.852-.343,1.34,1.34,0,0,1-.311-.933,1.356,1.356,0,0,1,.308-.943,1.087,1.087,0,0,1,.855-.343,1.07,1.07,0,0,1,.831.338,1.36,1.36,0,0,1,.308.947,1.324,1.324,0,0,1-.316.933A1.067,1.067,0,0,1,252.5,158.187Zm-10.689-14.779a1.093,1.093,0,0,1-.852-.343,1.335,1.335,0,0,1-.312-.934,1.355,1.355,0,0,1,.308-.941,1.088,1.088,0,0,1,.855-.344,1.07,1.07,0,0,1,.83.339,1.356,1.356,0,0,1,.308.946,1.32,1.32,0,0,1-.317.934A1.064,1.064,0,0,1,241.815,143.408Zm-1.475-2.866a.968.968,0,0,1-.7-.269,1.081,1.081,0,0,1-.283-.816,1.06,1.06,0,0,1,.283-.821,1,1,0,0,1,.7-.256.938.938,0,0,1,.717.287,1.112,1.112,0,0,1,.27.79,1.14,1.14,0,0,1-.266.786A.917.917,0,0,1,240.34,140.542Zm-1.467,2.866a1.08,1.08,0,0,1-.842-.343,1.335,1.335,0,0,1-.313-.934,1.359,1.359,0,0,1,.308-.941,1.212,1.212,0,0,1,1.691,0,1.371,1.371,0,0,1,.3.941,1.326,1.326,0,0,1-.316.934A1.076,1.076,0,0,1,238.873,143.408Zm17.046,8.2h2.158V140.229h2.571v13.512h-17.2a3.673,3.673,0,0,1-2.706-1.337,3.333,3.333,0,0,1-2.883,1.337h-8.843v.286a4.149,4.149,0,0,1-.982,2.909,3.381,3.381,0,0,1-2.626,1.077,5.741,5.741,0,0,1-1.623-.217,5.575,5.575,0,0,1-1.554-.781l1.036-1.729a3.5,3.5,0,0,0,.806.408,2.749,2.749,0,0,0,.839.113,1.34,1.34,0,0,0,1.112-.543,2.168,2.168,0,0,0,.421-1.368v-8.961h2.571V151.6h4.232v-5.279h2.571V151.6h1.467a1.534,1.534,0,0,0,1.26-.491,2.479,2.479,0,0,0,.4-1.567v-3.222h2.571v3.43a5.894,5.894,0,0,1-.05.8,2.765,2.765,0,0,0,.843.817,2.225,2.225,0,0,0,1.087.234h1.071v-6.669h2.571V151.6h4.233v-6.669h2.571V151.6Zm-35.725,6.582a1.085,1.085,0,0,1-.844-.343,1.34,1.34,0,0,1-.311-.933,1.356,1.356,0,0,1,.308-.943,1.077,1.077,0,0,1,.847-.343,1.064,1.064,0,0,1,.842.343,1.373,1.373,0,0,1,.3.943,1.324,1.324,0,0,1-.316.933A1.076,1.076,0,0,1,220.194,158.187Zm-2.934,0a1.082,1.082,0,0,1-.842-.343,1.334,1.334,0,0,1-.313-.933,1.363,1.363,0,0,1,.307-.943,1.08,1.08,0,0,1,.848-.343,1.065,1.065,0,0,1,.835.338,1.372,1.372,0,0,1,.3.947,1.334,1.334,0,0,1-.311.942A1.079,1.079,0,0,1,217.26,158.187Zm-4.619-15.239a1.084,1.084,0,0,1-.843-.344,1.332,1.332,0,0,1-.313-.933,1.362,1.362,0,0,1,.308-.943,1.083,1.083,0,0,1,.848-.343,1.07,1.07,0,0,1,.843.343,1.375,1.375,0,0,1,.3.943,1.323,1.323,0,0,1-.317.933A1.076,1.076,0,0,1,212.641,142.947Zm-2.934,0a1.082,1.082,0,0,1-.842-.344,1.332,1.332,0,0,1-.312-.933,1.358,1.358,0,0,1,.307-.943,1.081,1.081,0,0,1,.847-.343,1.062,1.062,0,0,1,.834.339,1.369,1.369,0,0,1,.3.947,1.327,1.327,0,0,1-.313.942A1.077,1.077,0,0,1,209.707,142.947Zm6.163,8.657h3.018v-6.669h2.571v8.8H210.811a5.489,5.489,0,0,1-3.718-1.15,4.027,4.027,0,0,1-1.323-3.209,4.45,4.45,0,0,1,.607-2.328,4.01,4.01,0,0,1,1.74-1.567,6.1,6.1,0,0,1,2.693-.551h.481v-.869h2.6V151.6Zm-4.553,0v-4.533h-.456a2.546,2.546,0,0,0-1.816.6,2.257,2.257,0,0,0-.636,1.728,2.105,2.105,0,0,0,.623,1.633,2.562,2.562,0,0,0,1.8.573Zm113.108-34.089a1.092,1.092,0,0,1-.852-.343,1.333,1.333,0,0,1-.311-.934,1.356,1.356,0,0,1,.307-.942,1.09,1.09,0,0,1,.856-.344,1.069,1.069,0,0,1,.831.339,1.36,1.36,0,0,1,.307.946,1.32,1.32,0,0,1-.317.934A1.063,1.063,0,0,1,324.425,117.516Zm-1.475-2.866a.969.969,0,0,1-.7-.269,1.078,1.078,0,0,1-.282-.816,1.061,1.061,0,0,1,.282-.821,1,1,0,0,1,.7-.255.941.941,0,0,1,.717.286,1.112,1.112,0,0,1,.27.791,1.141,1.141,0,0,1-.266.786A.916.916,0,0,1,322.95,114.65Zm-1.467,2.866a1.08,1.08,0,0,1-.842-.343,1.334,1.334,0,0,1-.313-.934,1.363,1.363,0,0,1,.308-.942,1.212,1.212,0,0,1,1.691,0,1.372,1.372,0,0,1,.3.942,1.324,1.324,0,0,1-.316.934A1.074,1.074,0,0,1,321.483,117.516Zm-20.249,8.571h14.695v-5.279H318.5v5.279h1.467a1.533,1.533,0,0,0,1.26-.491,2.478,2.478,0,0,0,.4-1.567v-3.222H324.2v3.429a5.9,5.9,0,0,1-.05.8,2.761,2.761,0,0,0,.842.816,2.222,2.222,0,0,0,1.087.234h1.071v-6.669h2.571v8.8h-3.591a3.672,3.672,0,0,1-2.706-1.337,3.331,3.331,0,0,1-2.883,1.337h-21.38v.287c0,1.222-1.355,2.191-2.01,2.909a3.379,3.379,0,0,1-2.625,1.077,5.724,5.724,0,0,1-1.623-.218,5.532,5.532,0,0,1-1.554-.781l2.064-1.728a3.523,3.523,0,0,0,.806.408,2.749,2.749,0,0,0,.839.113,1.342,1.342,0,0,0,1.112-.543,2.165,2.165,0,0,0,.421-1.368v-8.961h2.571v6.669Zm-27.149-8.657a1.084,1.084,0,0,1-.844-.343,1.333,1.333,0,0,1-.312-.933,1.365,1.365,0,0,1,.307-.943,1.083,1.083,0,0,1,.848-.342,1.068,1.068,0,0,1,.842.342,1.373,1.373,0,0,1,.3.943,1.324,1.324,0,0,1-.317.933A1.075,1.075,0,0,1,274.085,117.429Zm-2.934,0a1.08,1.08,0,0,1-.842-.343,1.333,1.333,0,0,1-.313-.933,1.356,1.356,0,0,1,.308-.943,1.079,1.079,0,0,1,.847-.342,1.062,1.062,0,0,1,.834.339,1.371,1.371,0,0,1,.3.947,1.325,1.325,0,0,1-.312.941A1.077,1.077,0,0,1,271.151,117.429Zm11.3,8.657H289.2V123.23a1.988,1.988,0,0,0-.717-1.65,3.177,3.177,0,0,0-2.032-.573h-2.933v-1.928a10.747,10.747,0,0,1,2.574-3.5,11.621,11.621,0,0,1,3.865-2.323l.944,2.379a10.194,10.194,0,0,0-2.807,1.381,6.83,6.83,0,0,0-1.906,1.858h.658q4.922,0,4.922,4.021v5.332H272.254a5.488,5.488,0,0,1-3.717-1.15,4.025,4.025,0,0,1-1.323-3.209,4.452,4.452,0,0,1,.607-2.327,4.018,4.018,0,0,1,1.74-1.567,6.1,6.1,0,0,1,2.693-.551h.481v-.869h2.6v7.538Zm-9.692,0v-4.533H272.3a2.547,2.547,0,0,0-1.816.6,2.258,2.258,0,0,0-.637,1.728,2.1,2.1,0,0,0,.624,1.632,2.563,2.563,0,0,0,1.8.573Zm-16.934-2.076a6.6,6.6,0,0,0,.4,2.076h.65a2.342,2.342,0,0,0,1.749-.721,2.4,2.4,0,0,0,.7-1.746,2.349,2.349,0,0,0-.447-1.507,1.442,1.442,0,0,0-1.188-.56,3.157,3.157,0,0,0-1.61.495A7.478,7.478,0,0,0,255.827,124.011Zm-1.921,2.076a6.2,6.2,0,0,1-.464-2.448,6.134,6.134,0,0,1,.253-1.668,6.711,6.711,0,0,1,.623-1.536,7.2,7.2,0,0,1,1.775-.755,6.252,6.252,0,0,1,1.648-.261,4.444,4.444,0,0,1,2.145.521,3.694,3.694,0,0,1,1.5,1.471,4.462,4.462,0,0,1,.53,2.21,4.651,4.651,0,0,1-.611,2.4,4.261,4.261,0,0,1-1.7,1.624,5.008,5.008,0,0,1-2.4.581H224.831V114.711H227.4v11.376h8.515a2.513,2.513,0,0,1-.594-.946,4.271,4.271,0,0,1-.24-1.537,3.791,3.791,0,0,1,.54-1.958,3.964,3.964,0,0,1,3.414-1.959,4.151,4.151,0,0,1,2.061.5,3.412,3.412,0,0,1,1.365,1.394,4.152,4.152,0,0,1,.475,1.98v2.527h2.4V122.8a5.032,5.032,0,0,0-1.079-3.465,4.007,4.007,0,0,0-3.153-1.208,14.215,14.215,0,0,0-2.272.161,10.1,10.1,0,0,0-1.926.516l-.582-2.032a12.774,12.774,0,0,1,2.335-.6,15.929,15.929,0,0,1,2.445-.178,6.96,6.96,0,0,1,5.1,1.689,6.6,6.6,0,0,1,1.7,4.894v3.517h5.994Zm-13.538,0v-2.414a2.255,2.255,0,0,0-.316-1.341,1.166,1.166,0,0,0-1-.422,1.13,1.13,0,0,0-.957.508,2.144,2.144,0,0,0-.367,1.289q0,2.38,2.091,2.379ZM218.028,132.5a5.722,5.722,0,0,1-1.623-.218,5.532,5.532,0,0,1-1.554-.781l1.036-1.728a3.5,3.5,0,0,0,.806.408,2.746,2.746,0,0,0,.839.113,1.342,1.342,0,0,0,1.112-.543,2.165,2.165,0,0,0,.421-1.368v-8.961h2.571v9.092a4.149,4.149,0,0,1-.982,2.909A3.38,3.38,0,0,1,218.028,132.5Zm-6.7-14.606a1.079,1.079,0,0,1-.842-.344,1.331,1.331,0,0,1-.313-.933,1.362,1.362,0,0,1,.308-.942,1.079,1.079,0,0,1,.847-.343,1.067,1.067,0,0,1,.843.343,1.371,1.371,0,0,1,.3.942,1.324,1.324,0,0,1-.316.933A1.075,1.075,0,0,1,211.326,117.89Zm-2.933,0a1.083,1.083,0,0,1-.844-.344,1.333,1.333,0,0,1-.312-.933,1.364,1.364,0,0,1,.307-.942,1.082,1.082,0,0,1,.848-.343,1.062,1.062,0,0,1,.834.339,1.367,1.367,0,0,1,.3.946,1.332,1.332,0,0,1-.311.942A1.074,1.074,0,0,1,208.393,117.89Zm1.66,8.344a1.69,1.69,0,0,0,1.345-.5,2.264,2.264,0,0,0,.434-1.515,3.691,3.691,0,0,0-.528-1.993,1.5,1.5,0,0,0-1.268-.847,1.487,1.487,0,0,0-1.26.825,3.713,3.713,0,0,0-.518,2.015,2.222,2.222,0,0,0,.443,1.52A1.72,1.72,0,0,0,210.052,126.234Zm.017,2.162a4.5,4.5,0,0,1-3.2-1.033,4,4,0,0,1-1.1-3.057,5.95,5.95,0,0,1,.551-2.557,4.425,4.425,0,0,1,1.539-1.841,3.947,3.947,0,0,1,2.259-.664,3.756,3.756,0,0,1,2.133.643,4.665,4.665,0,0,1,1.563,1.845,5.66,5.66,0,0,1,.6,2.574,3.983,3.983,0,0,1-1.1,3.1A4.715,4.715,0,0,1,210.069,128.4Z" transform="translate(-193.265 -101.075)" fill="#fff"/>
      <path id="Path_3" data-name="Path 3" d="M205.738,178.977h3.137l2.55,8.594,2.616-8.594h3.021V190.9h-2V180.724L212.025,190.9h-1.538l-2.981-10.183V190.9h-1.769Z" transform="translate(-193.26 -110.809)" fill="#fff" fill-rule="evenodd"/>
      <path id="Path_4" data-name="Path 4" d="M227.259,187.1q-.374-.035-.571-.035-2.544,0-2.544,1.852,0,1.348,1.263,1.347a1.608,1.608,0,0,0,1.3-.73,3.242,3.242,0,0,0,.557-2.008Zm-2.922-2.037-1.884-.217a2.6,2.6,0,0,1,1.167-1.829,4.242,4.242,0,0,1,2.4-.653,3.823,3.823,0,0,1,2.039.476,2.065,2.065,0,0,1,.96,1.131,7.372,7.372,0,0,1,.2,1.982v3a11.147,11.147,0,0,0,.169,2.435h-1.857a6.443,6.443,0,0,1-.122-1.466,2.849,2.849,0,0,1-2.656,1.68,2.681,2.681,0,0,1-1.922-.685,2.441,2.441,0,0,1-.725-1.863,2.748,2.748,0,0,1,1.061-2.278,6.087,6.087,0,0,1,3.68-.838q.131,0,.412.008v-.357a2.7,2.7,0,0,0-.3-1.423,1.186,1.186,0,0,0-1.088-.48A1.451,1.451,0,0,0,224.337,185.067Z" transform="translate(-195.656 -111.305)" fill="#fff" fill-rule="evenodd"/>
      <path id="Path_5" data-name="Path 5" d="M233.872,178.977h1.961v4.274a2.319,2.319,0,0,1,2.26-1.379,2.545,2.545,0,0,1,1.374.349,1.857,1.857,0,0,1,.779.93,7.211,7.211,0,0,1,.22,2.195V190.9H238.5v-5.546q0-1.377-.336-1.7a1.164,1.164,0,0,0-.832-.318q-1.5,0-1.5,2.52v5.04h-1.961Z" transform="translate(-197.379 -110.809)" fill="#fff" fill-rule="evenodd"/>
      <path id="Path_6" data-name="Path 6" d="M249.708,187.1q-.374-.035-.57-.035-2.545,0-2.544,1.852,0,1.348,1.263,1.347a1.608,1.608,0,0,0,1.3-.73,3.238,3.238,0,0,0,.557-2.008Zm-2.922-2.037-1.884-.217a2.6,2.6,0,0,1,1.167-1.829,4.242,4.242,0,0,1,2.4-.653,3.822,3.822,0,0,1,2.039.476,2.066,2.066,0,0,1,.961,1.131,7.4,7.4,0,0,1,.2,1.982v3a11.147,11.147,0,0,0,.169,2.435h-1.857a6.409,6.409,0,0,1-.123-1.466,2.849,2.849,0,0,1-2.656,1.68,2.68,2.68,0,0,1-1.922-.685,2.441,2.441,0,0,1-.725-1.863,2.748,2.748,0,0,1,1.061-2.278,6.089,6.089,0,0,1,3.68-.838c.087,0,.224,0,.411.008v-.357a2.7,2.7,0,0,0-.3-1.423,1.186,1.186,0,0,0-1.088-.48A1.451,1.451,0,0,0,246.785,185.067Z" transform="translate(-198.943 -111.305)" fill="#fff" fill-rule="evenodd"/>
      <path id="Path_7" data-name="Path 7" d="M256.32,182.589h1.73v1.969q.785-2.147,2.356-2.147a2.813,2.813,0,0,1,.355.027v1.912a3.879,3.879,0,0,0-.393-.026q-2.088,0-2.087,2.608V191.4H256.32Z" transform="translate(-200.665 -111.311)" fill="#fff" fill-rule="evenodd"/>
      <path id="Path_8" data-name="Path 8" d="M268.235,187.1q-.374-.035-.57-.035-2.544,0-2.544,1.852,0,1.348,1.263,1.347a1.607,1.607,0,0,0,1.3-.73,3.239,3.239,0,0,0,.557-2.008Zm-2.922-2.037-1.884-.217a2.6,2.6,0,0,1,1.167-1.829,4.244,4.244,0,0,1,2.4-.653,3.821,3.821,0,0,1,2.039.476,2.066,2.066,0,0,1,.961,1.131,7.4,7.4,0,0,1,.2,1.982v3a11.107,11.107,0,0,0,.169,2.435h-1.857a6.41,6.41,0,0,1-.123-1.466,2.848,2.848,0,0,1-2.656,1.68,2.681,2.681,0,0,1-1.922-.685,2.441,2.441,0,0,1-.725-1.863,2.747,2.747,0,0,1,1.061-2.278,6.086,6.086,0,0,1,3.68-.838c.087,0,.224,0,.411.008v-.357a2.7,2.7,0,0,0-.3-1.423,1.185,1.185,0,0,0-1.088-.48A1.452,1.452,0,0,0,265.313,185.067Z" transform="translate(-201.655 -111.305)" fill="#fff" fill-rule="evenodd"/>
      <path id="Path_9" data-name="Path 9" d="M274.847,178.977h1.961v4.274a2.319,2.319,0,0,1,2.261-1.379,2.546,2.546,0,0,1,1.374.349,1.855,1.855,0,0,1,.778.93,7.189,7.189,0,0,1,.22,2.195V190.9h-1.961v-5.546q0-1.377-.337-1.7a1.164,1.164,0,0,0-.832-.318q-1.5,0-1.5,2.52v5.04h-1.961Z" transform="translate(-203.377 -110.809)" fill="#fff" fill-rule="evenodd"/>
      <path id="Path_10" data-name="Path 10" d="M291.207,178.977h2.115v4.95h3.787v-4.95h2.115V190.9h-2.115v-5.308h-3.787V190.9h-2.115Z" transform="translate(-205.772 -110.809)" fill="#fff" fill-rule="evenodd"/>
      <path id="Path_11" data-name="Path 11" d="M304.166,182.62h1.961v5.6a3.943,3.943,0,0,0,.2,1.565q.2.4.9.4a1.227,1.227,0,0,0,1.206-.707,6.736,6.736,0,0,0,.344-2.616V182.62h1.961v8.811h-1.807V190.1a2.5,2.5,0,0,1-2.393,1.544,2.571,2.571,0,0,1-1.373-.331,1.846,1.846,0,0,1-.768-.942,6.639,6.639,0,0,1-.233-2.119Z" transform="translate(-207.669 -111.342)" fill="#fff" fill-rule="evenodd"/>
      <path id="Path_12" data-name="Path 12" d="M315.458,182.583h1.807v1.339a2.393,2.393,0,0,1,2.338-1.554,1.971,1.971,0,0,1,2.169,1.641,2.408,2.408,0,0,1,2.4-1.641,2.747,2.747,0,0,1,1.442.349,1.86,1.86,0,0,1,.8.925,6.911,6.911,0,0,1,.226,2.173v5.578h-1.961V185.97a4.147,4.147,0,0,0-.231-1.692.948.948,0,0,0-.93-.445q-1.492,0-1.492,2.4v5.162h-1.961v-5.363a6.745,6.745,0,0,0-.1-1.477.961.961,0,0,0-.364-.528,1.149,1.149,0,0,0-.687-.192,1.246,1.246,0,0,0-1.159.571,3.78,3.78,0,0,0-.346,1.87v5.118h-1.961Z" transform="translate(-209.322 -111.305)" fill="#fff" fill-rule="evenodd"/>
      <path id="Path_13" data-name="Path 13" d="M336.676,187.1c-.249-.023-.44-.035-.57-.035q-2.545,0-2.544,1.852,0,1.348,1.263,1.347a1.608,1.608,0,0,0,1.3-.73,3.239,3.239,0,0,0,.557-2.008Zm-2.922-2.037-1.884-.217a2.6,2.6,0,0,1,1.167-1.829,4.243,4.243,0,0,1,2.4-.653,3.823,3.823,0,0,1,2.039.476,2.066,2.066,0,0,1,.961,1.131,7.4,7.4,0,0,1,.2,1.982v3a11.105,11.105,0,0,0,.169,2.435h-1.857a6.408,6.408,0,0,1-.123-1.466,2.849,2.849,0,0,1-2.656,1.68,2.68,2.68,0,0,1-1.922-.685,2.439,2.439,0,0,1-.725-1.863,2.748,2.748,0,0,1,1.061-2.278,6.089,6.089,0,0,1,3.68-.838q.13,0,.411.008v-.357a2.7,2.7,0,0,0-.3-1.423,1.186,1.186,0,0,0-1.088-.48A1.451,1.451,0,0,0,333.754,185.067Z" transform="translate(-211.674 -111.305)" fill="#fff" fill-rule="evenodd"/>
      <path id="Path_14" data-name="Path 14" d="M343.288,182.583H345.1v1.356a2.357,2.357,0,0,1,2.347-1.571,2.56,2.56,0,0,1,1.544.428,1.83,1.83,0,0,1,.741,1.026,8.248,8.248,0,0,1,.155,1.889v5.682h-1.961v-5.58a3.831,3.831,0,0,0-.215-1.565.933.933,0,0,0-.916-.414,1.351,1.351,0,0,0-1.135.528,3.71,3.71,0,0,0-.407,2.1v4.935h-1.961Z" transform="translate(-213.396 -111.305)" fill="#fff" fill-rule="evenodd"/>
      <path id="Path_15" data-name="Path 15" d="M207.869,202.525v3.9h1.425a1.693,1.693,0,0,0,1.4-.56,2.27,2.27,0,0,0,.449-1.462,1.64,1.64,0,0,0-1.837-1.873Zm-1.849-1.519h3.373a3.651,3.651,0,0,1,2.7.881,3.448,3.448,0,0,1,.87,2.529,3.238,3.238,0,0,1-1.723,3.114l2.126,5.4h-2l-1.742-4.986h-1.75v4.986H206.02Z" transform="translate(-193.301 -114.034)" fill="#fff" fill-rule="evenodd"/>
      <path id="Path_16" data-name="Path 16" d="M220.336,208.043q0-2.323-1.434-2.324-1.343,0-1.475,2.324Zm1.748,1.233h-4.7a4.255,4.255,0,0,0,.458,2.387,1.393,1.393,0,0,0,1.15.6q1.155,0,1.459-1.644l1.563.218q-.616,2.8-3.075,2.8a2.894,2.894,0,0,1-2.4-1.143,5.353,5.353,0,0,1-.9-3.351,5.875,5.875,0,0,1,.9-3.507,2.841,2.841,0,0,1,2.415-1.239,2.644,2.644,0,0,1,1.782.619,3.3,3.3,0,0,1,1.019,1.625A10.168,10.168,0,0,1,222.084,209.277Z" transform="translate(-194.71 -114.53)" fill="#fff" fill-rule="evenodd"/>
      <path id="Path_17" data-name="Path 17" d="M229.7,206.66l-1.345.383q-.365-1.322-1.389-1.323a.982.982,0,0,0-.76.315,1.109,1.109,0,0,0-.289.778.945.945,0,0,0,.294.769,5.076,5.076,0,0,0,1.348.611,5,5,0,0,1,1.871,1.043,2.2,2.2,0,0,1,.572,1.618,2.665,2.665,0,0,1-.82,1.976,3.019,3.019,0,0,1-2.214.807,2.688,2.688,0,0,1-2.985-2.571l1.446-.288q.279,1.519,1.581,1.519a1.284,1.284,0,0,0,.987-.348,1.159,1.159,0,0,0,.1-1.484,2.625,2.625,0,0,0-1.233-.676,8.5,8.5,0,0,1-1.467-.619,2.252,2.252,0,0,1-.813-.833,2.4,2.4,0,0,1-.319-1.235,2.736,2.736,0,0,1,5.43-.443Z" transform="translate(-195.931 -114.53)" fill="#fff" fill-rule="evenodd"/>
      <path id="Path_18" data-name="Path 18" d="M236.78,209.018a5.742,5.742,0,0,0-.39-2.551,1.18,1.18,0,0,0-1.056-.693q-1.446,0-1.446,3.244a6.664,6.664,0,0,0,.337,2.45,1.166,1.166,0,0,0,2.214-.013A6.59,6.59,0,0,0,236.78,209.018Zm1.815-.092q0,4.712-3.282,4.711a2.82,2.82,0,0,1-2.375-1.138,5.743,5.743,0,0,1-.866-3.486q0-4.616,3.282-4.616a2.84,2.84,0,0,1,2.368,1.125A5.506,5.506,0,0,1,238.6,208.926Z" transform="translate(-197.115 -114.53)" fill="#fff" fill-rule="evenodd"/>
      <path id="Path_19" data-name="Path 19" d="M241.549,204.649h1.715v5.6a4.46,4.46,0,0,0,.179,1.565.769.769,0,0,0,.787.4,1.064,1.064,0,0,0,1.054-.707,7.627,7.627,0,0,0,.3-2.616v-4.238H247.3v8.811h-1.58v-1.329a2.2,2.2,0,0,1-2.093,1.544,2.03,2.03,0,0,1-1.2-.331,1.816,1.816,0,0,1-.672-.941,7.56,7.56,0,0,1-.2-2.119Z" transform="translate(-198.503 -114.567)" fill="#fff" fill-rule="evenodd"/>
      <path id="Path_20" data-name="Path 20" d="M250.672,204.618h1.513v1.969q.687-2.148,2.06-2.148a2.149,2.149,0,0,1,.31.027v1.912a2.967,2.967,0,0,0-.344-.026q-1.825,0-1.825,2.609v4.469h-1.715Z" transform="translate(-199.838 -114.536)" fill="#fff" fill-rule="evenodd"/>
      <path id="Path_21" data-name="Path 21" d="M261.987,207.565l-1.648.192a3.314,3.314,0,0,0-.418-1.527.991.991,0,0,0-.837-.385,1.152,1.152,0,0,0-1.107.745,6.908,6.908,0,0,0-.345,2.618q0,2.928,1.452,2.928,1.115,0,1.255-1.912l1.648.157q-.336,3.257-3.028,3.256a2.591,2.591,0,0,1-2.359-1.221,6.331,6.331,0,0,1-.767-3.377,6.016,6.016,0,0,1,.829-3.455,2.758,2.758,0,0,1,2.412-1.186Q261.626,204.4,261.987,207.565Z" transform="translate(-200.594 -114.53)" fill="#fff" fill-rule="evenodd"/>
      <path id="Path_22" data-name="Path 22" d="M268.585,208.043q0-2.323-1.434-2.324-1.343,0-1.475,2.324Zm1.749,1.233h-4.7a4.259,4.259,0,0,0,.458,2.387,1.393,1.393,0,0,0,1.15.6q1.155,0,1.46-1.644l1.564.218q-.617,2.8-3.075,2.8a2.893,2.893,0,0,1-2.4-1.143,5.35,5.35,0,0,1-.9-3.351,5.875,5.875,0,0,1,.9-3.507,2.842,2.842,0,0,1,2.415-1.239,2.643,2.643,0,0,1,1.782.619,3.3,3.3,0,0,1,1.019,1.625A10.164,10.164,0,0,1,270.334,209.277Z" transform="translate(-201.774 -114.53)" fill="#fff" fill-rule="evenodd"/>
      <path id="Path_23" data-name="Path 23" d="M277.951,206.66l-1.345.383q-.365-1.322-1.389-1.323a.982.982,0,0,0-.76.315,1.109,1.109,0,0,0-.289.778.945.945,0,0,0,.294.769,5.077,5.077,0,0,0,1.348.611,5,5,0,0,1,1.871,1.043,2.206,2.206,0,0,1,.572,1.618,2.665,2.665,0,0,1-.82,1.976,3.019,3.019,0,0,1-2.214.807,2.688,2.688,0,0,1-2.985-2.571l1.446-.288q.279,1.519,1.581,1.519a1.283,1.283,0,0,0,.987-.348,1.159,1.159,0,0,0,.1-1.484,2.625,2.625,0,0,0-1.233-.676,8.5,8.5,0,0,1-1.467-.619,2.252,2.252,0,0,1-.813-.833,2.4,2.4,0,0,1-.319-1.235,2.736,2.736,0,0,1,5.43-.443Z" transform="translate(-202.995 -114.53)" fill="#fff" fill-rule="evenodd"/>
      <path id="Path_24" data-name="Path 24" d="M290.1,208.886l1.715.253q-.525,3.965-3.669,3.965a3.317,3.317,0,0,1-3.046-1.667,8.616,8.616,0,0,1-1-4.46,8.389,8.389,0,0,1,1.059-4.617,3.437,3.437,0,0,1,3.054-1.606q3.087,0,3.62,4.072l-1.749.271q-.277-2.735-1.878-2.734-2.139,0-2.14,4.729,0,4.4,2.149,4.4a1.413,1.413,0,0,0,1.283-.672A5.035,5.035,0,0,0,290.1,208.886Z" transform="translate(-204.732 -113.997)" fill="#fff" fill-rule="evenodd"/>
      <path id="Path_25" data-name="Path 25" d="M299.1,209.018a5.741,5.741,0,0,0-.39-2.551,1.18,1.18,0,0,0-1.056-.693q-1.446,0-1.446,3.244a6.652,6.652,0,0,0,.337,2.45,1.166,1.166,0,0,0,2.214-.013A6.6,6.6,0,0,0,299.1,209.018Zm1.816-.092q0,4.712-3.282,4.711a2.82,2.82,0,0,1-2.375-1.138,5.743,5.743,0,0,1-.866-3.486q0-4.616,3.282-4.616a2.839,2.839,0,0,1,2.367,1.125A5.506,5.506,0,0,1,300.918,208.926Z" transform="translate(-206.239 -114.53)" fill="#fff" fill-rule="evenodd"/>
      <path id="Path_26" data-name="Path 26" d="M303.931,204.612h1.581v1.339a2.108,2.108,0,0,1,2.045-1.554,1.782,1.782,0,0,1,1.9,1.641,2.132,2.132,0,0,1,2.1-1.641,2.167,2.167,0,0,1,1.26.349,1.816,1.816,0,0,1,.7.925,7.855,7.855,0,0,1,.2,2.173v5.578H312V208a4.691,4.691,0,0,0-.2-1.692.8.8,0,0,0-.813-.445q-1.3,0-1.3,2.4v5.162h-1.715V208.06a7.691,7.691,0,0,0-.086-1.478.975.975,0,0,0-.319-.527.914.914,0,0,0-.6-.192,1.055,1.055,0,0,0-1.013.571,4.246,4.246,0,0,0-.3,1.87v5.118h-1.715Z" transform="translate(-207.635 -114.53)" fill="#fff" fill-rule="evenodd"/>
      <path id="Path_27" data-name="Path 27" d="M319.415,209.753a5.761,5.761,0,0,0,.118,1.321,1.6,1.6,0,0,0,.483.811,1.19,1.19,0,0,0,.828.336q1.445,0,1.445-3.26,0-3.156-1.413-3.156a1.222,1.222,0,0,0-1.044.645,3.382,3.382,0,0,0-.418,1.839Zm-1.715-5.128h1.58v1.453a2.158,2.158,0,0,1,2.041-1.6,2.323,2.323,0,0,1,2.017,1.165,6.018,6.018,0,0,1,.768,3.319,7.1,7.1,0,0,1-.7,3.28,2.286,2.286,0,0,1-2.162,1.352,2.05,2.05,0,0,1-1.832-1.073v3.9H317.7Z" transform="translate(-209.651 -114.542)" fill="#fff" fill-rule="evenodd"/>
      <path id="Path_28" data-name="Path 28" d="M331.145,209.133c-.218-.023-.385-.035-.5-.035q-2.225,0-2.225,1.851,0,1.347,1.1,1.347a1.374,1.374,0,0,0,1.133-.73,3.587,3.587,0,0,0,.487-2.008Zm-2.556-2.037-1.648-.217a2.657,2.657,0,0,1,1.02-1.829,3.37,3.37,0,0,1,2.1-.653,3.016,3.016,0,0,1,1.783.475,2.026,2.026,0,0,1,.84,1.131,8.409,8.409,0,0,1,.172,1.981v3a12.709,12.709,0,0,0,.148,2.435h-1.624a7.314,7.314,0,0,1-.107-1.466,2.487,2.487,0,0,1-2.323,1.68,2.179,2.179,0,0,1-1.68-.685,2.635,2.635,0,0,1-.634-1.863,2.914,2.914,0,0,1,.928-2.278,4.806,4.806,0,0,1,3.217-.839q.115,0,.36.008v-.357a3.011,3.011,0,0,0-.266-1.423.991.991,0,0,0-.951-.48Q328.81,205.72,328.589,207.1Z" transform="translate(-210.959 -114.53)" fill="#fff" fill-rule="evenodd"/>
      <path id="Path_29" data-name="Path 29" d="M336.175,204.612h1.58v1.356a2.081,2.081,0,0,1,2.052-1.571,2.04,2.04,0,0,1,1.35.427,1.847,1.847,0,0,1,.648,1.025,9.4,9.4,0,0,1,.135,1.89v5.682h-1.715v-5.58a4.335,4.335,0,0,0-.188-1.565.785.785,0,0,0-.8-.414,1.132,1.132,0,0,0-.993.527,4.163,4.163,0,0,0-.355,2.1v4.935h-1.715Z" transform="translate(-212.355 -114.53)" fill="#fff" fill-rule="evenodd"/>
      <path id="Path_30" data-name="Path 30" d="M343.938,204.649h1.717L347.1,210.7l1.48-6.051h1.547l-2.691,9.373a9.418,9.418,0,0,1-.544,1.51,2.032,2.032,0,0,1-.7.79,2.072,2.072,0,0,1-1.169.3,3.385,3.385,0,0,1-.881-.122v-1.44a3.321,3.321,0,0,0,.6.061,1.154,1.154,0,0,0,.949-.347,4.939,4.939,0,0,0,.6-1.611Z" transform="translate(-213.492 -114.567)" fill="#fff" fill-rule="evenodd"/>
    </g>
    <path id="Path_43914" data-name="Path 43914" d="M166.328,178.892a13.882,13.882,0,0,0-1.619-3.729,5.736,5.736,0,0,0-3.955-2.8,6.182,6.182,0,0,0-2.3-.107,8.871,8.871,0,0,0-1.423.328,19.813,19.813,0,0,0-3.784,2.108c-1.783,1.111-3.55,2.229-5.387,3.295a12.341,12.341,0,0,1-4.286,1.568,3.212,3.212,0,0,1-2.3-.5l-.215-.15-.071-.248-.152-.434.027-.3.018-.416a8.366,8.366,0,0,1,.2-.886,12.282,12.282,0,0,1,2.568-4.242l.788-.823a3.509,3.509,0,0,1,.519-.514l.555-.54,1.369-1.2,2.621-2.214.85-.753a20.194,20.194,0,0,0,1.592-1.479,16.9,16.9,0,0,0,3.516-4.677,13.838,13.838,0,0,0,.877-2.808c.15-.636.152-1.288.268-1.984a11.49,11.49,0,0,0,.08-1.824,7.945,7.945,0,0,0-.036-1.17c-.1-.609-.047-1.186-.161-1.754a22.03,22.03,0,0,0-.868-3.49,12.761,12.761,0,0,0-.778-1.922c-.106-.18-.206-.428-.394-.523-.168-.085-.161.137-.2.239l-.358.85a7.987,7.987,0,0,1-2.335,2.763,10.457,10.457,0,0,1-3.561,1.639c-.445.121-.894.157-1.378.248l-.939.106-.51.018-.814.009-1.065-.071-1.253-.151.188.78.331,1.3a35.578,35.578,0,0,0,1.163,3.808c.229.564.569,1.608,1.029,1.9a3.33,3.33,0,0,0,1.02.159,12.526,12.526,0,0,0,2.085.133,4.513,4.513,0,0,0,1.029-.036l-1.056.984-2.461,2.1c-.746.584-1.409,1.262-2.147,1.851l-.9.868a3.932,3.932,0,0,0-.581.585c-.224.275-.5.508-.725.788-.242.3-.52.582-.752.895a11.094,11.094,0,0,0-1.584,2.852,14.657,14.657,0,0,0-.519,2.126c-.077.387-.018.777-.089,1.2a4.614,4.614,0,0,0,.018,1.187c.062.386.027.744.1,1.107.14.707.218,1.4.4,2.055.154.545.374,1.06.536,1.568l.242,1.124a22.57,22.57,0,0,0,.787,2.658,12.841,12.841,0,0,0,.644,1.408l.349.567a6.462,6.462,0,0,0-.769,2.01,5.221,5.221,0,0,0-.1,1.639c.073.46.029.895.116,1.32a18.469,18.469,0,0,0,.877,3.188c.225.558.458,1.1.707,1.639l.384.762a12.588,12.588,0,0,1-2.934-.239c-5.086-1.187-8.321-4.756-9.995-9.309-.264-.718-.477-1.469-.689-2.241l-.251-1.187c-.2-.786-.228-1.654-.376-2.507l-.089-1.107-.054-1.276v-.46a5.953,5.953,0,0,1,.009-1.329l.045-1.355.117-1.559.089-.885c.178-1.008.2-2.03.421-3l.537-2.781.492-2.232.358.885c.323.733.584,1.5.867,2.277.369,1.006.68,2.068.985,3.144l.447,1.957c.154.636.175,1.283.3,1.958.1.543.062,1.15.152,1.727l.009.646v.974l-.054.992-.161,1.373a2.258,2.258,0,0,0,.385-.443,9.762,9.762,0,0,0,1.19-2.02,16.181,16.181,0,0,0,1.065-3.206c.126-.574.124-1.185.224-1.789l.027-.531.036-.974v-.593c-.08-.519.019-1.052-.063-1.551-.136-.832-.142-1.66-.313-2.444a44.58,44.58,0,0,0-1.3-5.075c-.39-1.127-.783-2.251-1.217-3.33l-.411-1.063-.957-2.241.259-1.86.653-4.438L132.65,144l.134-1.3.134-1.878.063-1.231v-.452a4.819,4.819,0,0,0-.009-1.124v-.31l-.071-1.559-.027-.673-.223-2.808-.117-1.107c-.2-1.164-.236-2.345-.465-3.481l-.519-2.976-.465-2.241c-.538-2.114-.976-4.212-1.655-6.191-.472-1.375-.9-2.768-1.45-4.065l-.653-1.621-.8-1.753-.429-.877c-.094.051-.121.312-.161.416l-.4,1.178c-.52,1.465-1.075,2.817-1.611,4.26-.771,2.078-1.445,4.261-2.076,6.484l-.823,3.224c-.287,1.054-.428,2.13-.671,3.224-.172.773-.251,1.594-.4,2.4l-.116,1.107-.071,1.267v1.647l.071,1.2c.1.635.067,1.246.179,1.851.216,1.165.335,2.313.608,3.41a73.573,73.573,0,0,0,2.255,7.59c.284.774.542,1.549.868,2.285.4.9.684,1.828,1.1,2.71.849,1.8,1.554,3.661,2.416,5.448l1.19,2.6-.206,1.461c-.206,1.089-.3,2.17-.537,3.215l-1.432,7.582-.42,2.639-.314,2.577-.071.806-.089,1.338-.027.983-.018.992.018.974v.319l.071,1.275.116,1.2c.162.888.231,1.782.439,2.6l.25,1.116a24.064,24.064,0,0,0,1.387,3.95,14.886,14.886,0,0,0,9.2,7.768c.77.246,1.583.408,2.425.593l1.083.15c.4.069.8.005,1.217.071a4.994,4.994,0,0,0,1.2.009c.346-.053.7,0,1.02-.054.548-.087,1.062-.075,1.575-.177a23.511,23.511,0,0,0,3.356-.885,7.373,7.373,0,0,0,1.208-.514l1.754-1.116.519-.381.233-.2.4-.106.931-.319a18.784,18.784,0,0,0,2.631-1.258,23.639,23.639,0,0,0,6.451-5.589l.975-1.178a15.8,15.8,0,0,0,2.354-4.118,15.451,15.451,0,0,0,.51-1.789l.161-1.081a6.077,6.077,0,0,0,.045-1.027A12.676,12.676,0,0,0,166.328,178.892Zm-37.061-32.178-.054-1.462-.009-.371-.107-1.462-.027-.46-.2-1.861c-.159-.9-.186-1.8-.358-2.657-.193-.959-.279-1.916-.493-2.834-.309-1.33-.5-2.654-.85-3.924-.427-1.564-.737-3.129-1.208-4.632-.54-1.726-.946-3.468-1.521-5.147l-.581-1.86-.447,1.275a21.664,21.664,0,0,0-.895,3.3l-.108,1.027-.009.47v.673l.027.682.072,1.107c.149.889.174,1.794.349,2.631.2.954.3,1.878.546,2.781a68.55,68.55,0,0,0,2.273,7.36c.339.854.612,1.724.984,2.542l.609,1.488,1.243,2.772.537,1.187a1.865,1.865,0,0,0,.241.523V147.8Zm10.272,10.026c-.1-.627-.118-1.254-.251-1.851a27.45,27.45,0,0,0-1.11-4.012,15.7,15.7,0,0,0-1.271-2.7c-.129-.206-.411-.732-.689-.753a3.6,3.6,0,0,0-.376.983c-.354.925-.612,1.93-.886,2.932a3.721,3.721,0,0,0-.179,1.285l.215.257.483.691a13.528,13.528,0,0,1,1.154,2.444,25.013,25.013,0,0,1,.868,3.445l.206,1.612a18.835,18.835,0,0,1,.116,2.188c.05,1.024-.089,2.076-.107,3.047a2.139,2.139,0,0,0,.331-.629,16.989,16.989,0,0,0,.806-2,19.475,19.475,0,0,0,.6-2.586c.075-.389.05-.776.116-1.187.05-.31-.009-.654.045-.992v-1.027ZM120.356,149c-.6-.81-2.457-1.019-3.919-1l-.69.036c-.389.066-.789.094-1.145.177l-.251.044c-.233.106-.546.784-.662,1.054a25.545,25.545,0,0,0-.787,2.435l-.224.833-.089.363a6.3,6.3,0,0,1,1.9-1.028,7.4,7.4,0,0,1,3.579.213l.841.239-1.163.567-2.345.372a6.714,6.714,0,0,0-2.613,1.133,3.552,3.552,0,0,0-1.172,1.647l-.313,1.372.313-.265.564-.408a9.024,9.024,0,0,1,1.923-.868,10.585,10.585,0,0,1,1.432-.31l.868-.115a4.994,4.994,0,0,0,2.765-1.24,8.1,8.1,0,0,0,1.423-3.348A2.558,2.558,0,0,0,120.356,149Zm5.055,15.97a7.105,7.105,0,0,0-.725.487,4.86,4.86,0,0,1-1.637.557,2.561,2.561,0,0,1-2.622-1.231,4.105,4.105,0,0,1-.411-2.2,7.918,7.918,0,0,1,.841-2.249,13.946,13.946,0,0,0,1.128-2.649c.1-.393.1-1.031-.287-1.107l-.832,1.807-.761,1.693a21.862,21.862,0,0,0-1.566,4.136c-.51,2,.08,3.966,1.36,4.756a3.026,3.026,0,0,0,.815.327,3.572,3.572,0,0,0,1.637-.053,3.617,3.617,0,0,0,2.479-2.02,8.657,8.657,0,0,0,.617-1.585C125.493,165.475,125.571,165.061,125.411,164.969Zm-9.377-.8c-.528-.841-1-1.717-1.476-2.622-.276-.527-.54-1.069-.788-1.629l-.3-.683a4.417,4.417,0,0,0-1.163.709c-.6.42-1.155.869-1.718,1.319-.363.29-.644.728-1.011,1a8.543,8.543,0,0,1-.7-1.169c-.486-.809-.937-1.667-1.36-2.533l-.51-1.108c-.047-.105-.086-.32-.179-.38l-.259.124-.59.372a13.772,13.772,0,0,0-2.89,2.418c-.278.341-.578.654-.832,1.027a1.188,1.188,0,0,0-.215.381c-.038.169.1.331.152.443.166.385.345.754.51,1.125a26.521,26.521,0,0,0,1.548,2.94l.832,1.347c.1.046.268-.062.349-.107a8.377,8.377,0,0,0,.761-.47c.653-.457,1.222-.974,1.834-1.461l.922-.9.152.328.447.939c.461.939.932,1.845,1.459,2.719l.707,1.133a10.332,10.332,0,0,0,1.306-.939,26.154,26.154,0,0,0,2.433-2.019,3.6,3.6,0,0,0,1.119-1.444Zm4.429,13.427-.071-.7A5.991,5.991,0,0,0,119.7,175a5.627,5.627,0,0,0-3.829-2.586c-.6-.16-1.246-.2-1.9-.311l-.662-.053-1.682-.123-.7-.027-1.163-.026-2.174-.107-1.191-.115a13.105,13.105,0,0,1-3.194-.8,4.167,4.167,0,0,1-2.38-2.471,3.493,3.493,0,0,1-.161-1.116,5.219,5.219,0,0,0,.009-.611c-.258.331-.6.608-.859.965a9.341,9.341,0,0,0-.537.9,12.021,12.021,0,0,0-1.316,3.356,5.636,5.636,0,0,0,.4,3.552c.681,1.234,2.051,1.728,3.624,2.09l1.029.186-.519,1.116a9.8,9.8,0,0,0-.555,1.851c-.071.339-.028.689-.09,1.062a3.16,3.16,0,0,0-.009.869l.027.726c.1.629.137,1.242.286,1.8.786,2.934,2.161,4.956,5.029,5.828a8.733,8.733,0,0,0,3.543.266,11.559,11.559,0,0,0,1.781-.4c3.2-1.14,4.974-3.64,6.379-6.563a21.865,21.865,0,0,0,1.253-3.667c.123-.446.179-.912.268-1.391l.063-.744A3.143,3.143,0,0,0,120.463,177.6Zm3.543,14.579c-.533.33-1.092.633-1.664.921a22.924,22.924,0,0,1-5.378,1.808,22.076,22.076,0,0,1-9.574-.328,19.256,19.256,0,0,1-3.069-1.062c-.4-.187-.8-.326-1.172-.54-.713-.412-1.4-.813-2.058-1.276a15.217,15.217,0,0,1-5.69-7.971,14.471,14.471,0,0,1-.268-7.165c.244-.91.508-1.731.778-2.6a5.23,5.23,0,0,0,.259-1l-.439.478a10.722,10.722,0,0,0-.895,1.4,12.872,12.872,0,0,0-.742,1.834c-.4,1.13-.713,2.324-1.047,3.542-.31,1.133-.407,2.336-.626,3.578l-.09,1.2a8.217,8.217,0,0,0-.044,1.258l.018.8.071,1.223c.143.835.217,1.647.421,2.391a15.4,15.4,0,0,0,.922,2.666,15.6,15.6,0,0,0,8.616,7.795,22.251,22.251,0,0,0,3.087.912l1.449.239,1.459.133.421.009a6.6,6.6,0,0,0,1.485,0c.4-.062.808-.011,1.181-.071l.779-.071c.664-.123,1.33-.169,1.959-.327l1.584-.4a24.522,24.522,0,0,0,3.821-1.524c.634-.326,1.224-.673,1.807-1.037a4.208,4.208,0,0,0,1.091-.841,12.973,12.973,0,0,0,2-4.668l.251-1.3.054-.478Zm-6.541-9.548a4.261,4.261,0,0,0-1.691-2.6,9.241,9.241,0,0,0-3.051-1.347c-.52-.142-1.077-.2-1.629-.31-.866-.172-1.8-.119-2.711-.266l-3.633-.213.1.523a13.949,13.949,0,0,0,.519,1.824,7.242,7.242,0,0,0,4.957,4.615,9.692,9.692,0,0,0,6.165-.549,4.5,4.5,0,0,0,1.172-.682A4.089,4.089,0,0,0,117.465,182.63Zm45.042-2.843a9.036,9.036,0,0,0-1.9-.159l-.68.053a6.418,6.418,0,0,0-1.3.346,15.57,15.57,0,0,0-2.111,1.169l-3.06,1.94-2.407,1.444a1.417,1.417,0,0,1,.313.327c.2.245.43.464.627.717a15.936,15.936,0,0,1,2.228,4.367l.609-.4c.569-.376,1.1-.776,1.637-1.177a24.121,24.121,0,0,0,5.154-5.368,20.526,20.526,0,0,0,1.306-2.081,4.12,4.12,0,0,0,.483-.983Zm-24.865,1.3a4.218,4.218,0,0,0-2.5-1.2,9.93,9.93,0,0,0-2.281-.257,1.845,1.845,0,0,0-.385.16,6.025,6.025,0,0,0-1.387,2.3,5.668,5.668,0,0,0-.25.762c-.022.089-.039.276.027.319l1.459.107c1.37.234,3.2.519,3.471,1.789a1,1,0,0,1-.322.814,6.913,6.913,0,0,1-1.763,1.32,1.359,1.359,0,0,0-.528,1.434c.051.229.17.418.224.62l1.422-1.408a11.132,11.132,0,0,0,2.872-3.765A3.448,3.448,0,0,0,137.642,181.089Zm13.055,8.963a5.748,5.748,0,0,0-3.158-.9l-.34.018a7.2,7.2,0,0,0-.832.141,4.227,4.227,0,0,0-2.47,1.754l.528.275.815.31a8.823,8.823,0,0,0,4.134.248l.814-.15.331-.31a4.76,4.76,0,0,0,.814-.956A3.27,3.27,0,0,0,150.7,190.052Z" transform="translate(-92.285 -100.47)" fill="#a98445" fill-rule="evenodd"/>
  </g>
</svg>
