<svg xmlns="http://www.w3.org/2000/svg" width="49.516" height="52" viewBox="0 0 49.516 52">
  <g id="Riyadh_building-icon" transform="translate(-9.981 -7.653)">
    <path id="Path_44008" data-name="Path 44008" d="M32.842,31.675c3.756,0,5.956-14.587,6.727-20.86l.024-.194-.192-.038a33.531,33.531,0,0,0-13.117.022l-.191.039.024.193C26.889,17.1,29.089,31.675,32.842,31.675ZM26.559,10.98a33.108,33.108,0,0,1,12.567-.021c-.188,1.515-.4,3.044-.639,4.547A22.717,22.717,0,0,0,27.194,15.5C26.959,14.006,26.746,12.486,26.559,10.98Zm11.862,4.942c-1.3,8.1-3.27,15.332-5.579,15.332s-4.279-7.235-5.581-15.337A22.277,22.277,0,0,1,38.421,15.922ZM54.705,28.451A4.07,4.07,0,1,0,49.8,22.544a22.355,22.355,0,0,0-6.808-5.336V7.653H22.695V17.2A22.334,22.334,0,0,0,10.39,37.219c0,.754.039,1.515.113,2.26a2.355,2.355,0,0,0-.407.54,1.817,1.817,0,1,0-.437,3.58h1.654A22.442,22.442,0,1,0,53.936,29.593,2.164,2.164,0,0,0,54.705,28.451ZM14.8,40.76Zm7.9,15.982A22.069,22.069,0,0,1,11.754,43.6H14.8a1.631,1.631,0,1,0,0-3.262,1.611,1.611,0,0,0-.385.046A2.357,2.357,0,0,0,10.9,39.161c-.056-.643-.09-1.293-.09-1.941A21.91,21.91,0,0,1,22.695,17.677V56.743Zm30.6-35.756a3.644,3.644,0,0,1,1.49,6.973c0-.027.008-.052.008-.079a2.169,2.169,0,0,0-2.167-2.167,2.2,2.2,0,0,0-.556.071,2.835,2.835,0,0,0-2.4-1.507,3.635,3.635,0,0,1,3.63-3.292ZM40.932,8.075c-.3,2.644-3.183,26.965-8.091,26.965s-7.792-24.32-8.09-26.965ZM54.847,37.219A22.036,22.036,0,0,1,42.988,56.744V17.686a21.963,21.963,0,0,1,6.6,5.256,4.077,4.077,0,0,0-.347,1.357,2.841,2.841,0,0,0-2.376,1.934,1.906,1.906,0,0,0-.5-.066,1.941,1.941,0,1,0,0,3.882h6.261a2.139,2.139,0,0,0,.945-.226A21.937,21.937,0,0,1,54.847,37.219Zm-16.4,20.432h1.336v.421H38.452Zm-2.093,0H37.7v.421H36.359Zm-4.186,0H33.51v.421H32.173Zm2.093,0H35.6v.421H34.266Zm-6.279,0h1.336v.421H27.988Zm2.093,0h1.336v.421H30.081Zm-4.186,0h1.336v.421H25.895Zm12.557-1.733h1.336v.421H38.452Zm-2.093,0H37.7v.421H36.359Zm4.186,0h1.336v.421H40.545Zm-8.371,0H33.51v.421H32.173Zm2.093,0H35.6v.421H34.266Zm-6.279,0h1.336v.421H27.988Zm2.093,0h1.336v.421H30.081Zm-6.279,0h1.336v.421H23.8Zm2.093,0h1.336v.421H25.895Zm10.464-1.735H37.7v.421H36.359Zm4.186,0h1.336v.421H40.545Zm-8.371,0H33.51v.421H32.173Zm-4.186,0h1.336v.421H27.988Zm2.093,0h1.336v.421H30.081Zm-4.186,0h1.336v.421H25.895Zm12.557-1.734h1.336v.421H38.452Zm-2.093,0H37.7v.421H36.359Zm4.186,0h1.336v.421H40.545Zm-8.371,0H33.51v.421H32.173Zm2.093,0H35.6v.421H34.266Zm-6.279,0h1.336v.421H27.988Zm-4.186,0h1.336v.421H23.8Zm2.093,0h1.336v.421H25.895Zm12.557-1.735h1.336v.421H38.452Zm-2.093,0H37.7v.421H36.359Zm-4.186,0H33.51v.421H32.173Zm2.093,0H35.6v.421H34.266Zm-6.279,0h1.336v.421H27.988Zm2.093,0h1.336v.421H30.081Zm-6.279,0h1.336v.421H23.8Zm2.093,0h1.336v.421H25.895Zm12.557-1.734h1.336V49.4H38.452Zm-2.093,0H37.7V49.4H36.359Zm4.186,0h1.336V49.4H40.545Zm-8.371,0H33.51V49.4H32.173Zm2.093,0H35.6V49.4H34.266Zm-4.186,0h1.336V49.4H30.081Zm6.279-1.734H37.7v.421H36.359Zm-8.371,0h1.336v.421H27.988Zm2.093,0h1.336v.421H30.081Zm-6.279,0h1.336v.421H23.8Zm2.093,0h1.336v.421H25.895Zm12.557-1.734h1.336v.421H38.452Zm-2.093,0H37.7v.421H36.359Zm4.186,0h1.336v.421H40.545Zm-8.371,0H33.51v.421H32.174Zm2.093,0H35.6v.421H34.266Zm-6.279,0h1.336v.421H27.988Zm2.093,0h1.336v.421H30.081Zm-4.186,0h1.336v.421H25.895Zm14.65-1.734h1.336V44.2H40.545Zm-8.371,0H33.51V44.2H32.174Zm2.093,0H35.6V44.2H34.266Zm-10.464,0h1.336V44.2H23.8Zm2.093,0h1.336V44.2H25.895Zm12.557-1.734h1.336v.421H38.452Zm-2.093,0H37.7v.421H36.359Zm4.186,0h1.336v.421H40.545Zm-8.371,0H33.51v.421H32.174Zm2.093,0H35.6v.421H34.266Zm-6.279,0h1.336v.421H27.988Zm2.093,0h1.336v.421H30.081Zm-6.279,0h1.336v.421H23.8Zm2.093,0h1.336v.421H25.895Zm6.279-1.735H33.51v.421H32.174Zm2.093,0H35.6v.421H34.266Zm-4.186,0h1.336v.421H30.081Zm-4.186,0h1.336v.421H25.895Zm12.557-1.734h1.336V39H38.452Zm-2.093,0H37.7V39H36.359Zm4.186,0h1.336V39H40.545Zm-8.371,0H33.51V39H32.174Zm2.093,0H35.6V39H34.266Zm-6.279,0h1.336V39H27.988Zm2.093,0h1.336V39H30.081Zm-6.279,0h1.336V39H23.8Zm2.093,0h1.336V39H25.895Zm12.557-1.734h1.336v.421H38.452Zm-2.093,0H37.7v.421H36.359Zm4.186,0h1.336v.421H40.545Zm-8.371,0H33.51v.421H32.174Zm-4.186,0h1.336v.421H27.988Zm2.093,0h1.336v.421H30.081Zm-4.186,0h1.336v.421H25.895Zm12.557-1.734h1.336v.421H38.452Zm-14.65,0h1.336v.421H23.8Zm2.093,0h1.336v.421H25.895Z" transform="translate(2.138 0)" fill="#53666d"/>
  </g>
</svg>
